HIERARCHY
ROOT joint_0
{
	OFFSET 0.000000 0.000000 0.000000
	CHANNELS 6 Xposition Yposition Zposition Zrotation Yrotation Xrotation 
	JOINT joint_1
	{
		OFFSET 1.363060 -1.794630 0.839290
		CHANNELS 3 Zrotation Yrotation Xrotation
		JOINT joint_2
		{
			OFFSET 2.448110 -6.726130 0.000000
			CHANNELS 3 Zrotation Yrotation Xrotation
			JOINT joint_3
			{
				OFFSET 2.562200 -7.039590 0.000000
				CHANNELS 3 Zrotation Yrotation Xrotation
				JOINT joint_4
				{
					OFFSET 0.157640 -0.433110 2.322550
					CHANNELS 3 Zrotation Yrotation Xrotation
					End Site
					{
						OFFSET 0.000000 0.000000 0.000000
					}
				}
			}
		}
	}
	JOINT joint_5
	{
		OFFSET -1.305520 -1.794630 0.839290
		CHANNELS 3 Zrotation Yrotation Xrotation
		JOINT joint_6
		{
			OFFSET -2.542530 -6.985550 0.000000
			CHANNELS 3 Zrotation Yrotation Xrotation
			JOINT joint_7
			{
				OFFSET -2.568260 -7.056230 0.000000
				CHANNELS 3 Zrotation Yrotation Xrotation
				JOINT joint_8
				{
					OFFSET -0.164730 -0.452590 2.363150
					CHANNELS 3 Zrotation Yrotation Xrotation
					End Site
					{
						OFFSET 0.000000 0.000000 0.000000
					}
				}
			}
		}
	}
	JOINT joint_9
	{
		OFFSET 0.028270 2.035590 -0.193380
		CHANNELS 3 Zrotation Yrotation Xrotation
		JOINT joint_10
		{
			OFFSET 0.056720 2.048850 -0.042750
			CHANNELS 3 Zrotation Yrotation Xrotation
			JOINT joint_11
			{
				OFFSET -0.054170 1.746240 0.172020
				CHANNELS 3 Zrotation Yrotation Xrotation
				JOINT joint_12
				{
					OFFSET 0.104070 1.761360 -0.123970
					CHANNELS 3 Zrotation Yrotation Xrotation
					End Site
					{
						OFFSET 0.000000 0.000000 0.000000
					}
				}
			}
			JOINT joint_13
			{
				OFFSET 3.362410 1.200890 -0.311210
				CHANNELS 3 Zrotation Yrotation Xrotation
				JOINT joint_14
				{
					OFFSET 4.983000 -0.000000 -0.000000
					CHANNELS 3 Zrotation Yrotation Xrotation
					JOINT joint_15
					{
						OFFSET 3.483560 -0.000000 -0.000000
						CHANNELS 3 Zrotation Yrotation Xrotation
						JOINT joint_16
						{
							OFFSET 0.000000 0.000000 0.000000
							CHANNELS 3 Zrotation Yrotation Xrotation
							End Site
							{
								OFFSET 0.000000 0.000000 0.000000
							}
						}
					}
				}
			}
			JOINT joint_17
			{
				OFFSET -3.136600 1.374050 -0.404650
				CHANNELS 3 Zrotation Yrotation Xrotation
				JOINT joint_18
				{
					OFFSET -5.241900 -0.000000 -0.000000
					CHANNELS 3 Zrotation Yrotation Xrotation
					JOINT joint_19
					{
						OFFSET -3.444170 -0.000000 -0.000000
						CHANNELS 3 Zrotation Yrotation Xrotation
						JOINT joint_20
						{
							OFFSET 0.000000 0.000000 0.000000
							CHANNELS 3 Zrotation Yrotation Xrotation
							End Site
							{
								OFFSET 0.000000 0.000000 0.000000
							}
						}
					}
				}
			}
		}
	}
}
MOTION
Frames: 9
Frame Time: 0.031667
-9.504039 13.213994 1.398569 -12.802456 78.930977 -3.364663 -1.042243 8.034455 -36.670962 -0.349975 15.088061 39.838911 0.513676 -1.151938 -4.253284 -0.298457 1.385164 4.674782 -0.077717 -10.500162 -16.842725 -10.255737 -22.464921 71.863744 -0.947281 1.674736 -2.665759 -2.137081 8.061586 -24.526218 -0.903401 -0.713712 -3.573659 -1.803636 -0.327574 -3.280961 7.020436 2.346089 8.330575 -1.385593 1.489232 -21.452313 -54.336932 -58.422066 -7.801874 24.353017 -31.722150 -11.971091 5.207498 -2.597611 -0.018787 -7.395751 -0.358462 -0.297988 62.169649 74.560184 33.471843 -18.372493 24.654789 -17.994601 -2.657676 4.485144 -3.824751 6.651355 -0.338223 -0.350952 
-9.044865 13.234505 1.380784 -15.252708 78.662460 -5.019760 -0.994471 8.450954 -37.734543 0.209123 15.558097 41.475365 0.464173 0.087021 -3.796655 -0.326560 1.104896 3.907004 -0.290072 -9.969956 -16.512841 -10.315695 -22.444603 71.472312 -1.339457 1.685927 -3.501700 -2.176048 8.115296 -24.766551 -0.883686 -0.408203 -3.777595 -2.078756 -0.199916 -4.157312 6.830778 2.478071 8.284059 -1.179722 1.560956 -21.686352 -57.500024 -59.011802 -4.685416 24.753286 -31.099005 -12.749824 5.241441 -2.908743 1.395006 -7.401305 -0.369143 -0.306842 67.636291 72.033188 38.236977 -18.882783 24.694392 -18.922552 -2.645693 4.625548 -3.784129 6.637881 -0.347419 -0.359993 
-8.582102 13.253814 1.375227 -16.009581 78.725639 -5.274573 -1.431081 9.630805 -38.855069 0.926765 16.160679 44.230587 0.296884 0.817196 -3.770592 -0.341703 0.452465 2.081534 -0.561252 -9.659476 -16.449075 -10.817888 -22.584041 73.381203 -1.183841 1.495334 -4.158625 -2.062347 7.913449 -24.012646 -0.636834 -0.017356 -3.613864 -2.157572 -0.046039 -4.707562 6.991464 2.276907 8.112462 -0.673309 1.591227 -21.552698 -60.114552 -59.246258 -0.023488 24.961070 -31.044267 -13.402661 5.297864 -3.408002 1.835968 -7.384988 -0.354092 -0.292675 70.522393 69.145927 41.189447 -18.889171 24.955201 -19.756072 -2.595743 4.810108 -3.417912 6.655475 -0.334683 -0.341821 
-8.108243 13.300405 1.390545 -14.743326 79.047958 -3.570675 -2.119201 10.742262 -40.460228 1.494279 17.398186 48.391403 0.083985 0.903817 -2.523554 -0.330574 -0.153666 0.399029 -0.346022 -9.820239 -17.295654 -11.393890 -23.356592 77.059503 -1.032316 1.988214 -4.681333 -1.520204 6.614136 -19.966392 -0.248023 0.182302 -3.165689 -1.892033 -0.009752 -5.357414 6.565281 1.593378 8.059090 0.015798 1.367452 -21.428501 -62.691911 -58.911040 4.605671 25.074192 -30.894344 -14.369940 5.218876 -3.755484 1.108865 -7.372181 -0.332694 -0.275713 74.171445 66.550201 44.167843 -18.494114 24.785027 -20.372969 -2.457184 4.965520 -3.013602 6.681633 -0.315679 -0.317799 
-7.625435 13.354099 1.398971 -12.545284 79.557106 -1.045868 -2.598753 11.754255 -41.941987 2.810814 18.432886 52.124765 0.008630 0.635605 -2.045053 -0.309074 -1.008906 -1.969792 -0.037420 -9.711342 -17.991369 -12.598783 -23.556485 79.962720 -0.564566 1.551386 -4.567795 -1.136483 5.446772 -16.442441 -0.196543 0.380814 -2.977280 -1.621104 -0.070901 -5.541699 6.264910 1.440512 8.056723 0.467718 1.340512 -21.090258 -65.622267 -58.433032 8.920907 24.795363 -29.994583 -14.918588 5.142492 -4.084572 -0.376513 -7.365107 -0.328646 -0.272478 76.302572 64.607457 45.146722 -18.151388 24.630580 -20.775306 -2.299492 5.038045 -2.505546 6.689182 -0.311912 -0.311526 
-7.136471 13.432327 1.396847 -12.834898 80.075310 -0.522212 -2.530229 12.034792 -43.181088 3.570777 19.116337 54.314112 -0.542284 1.969809 -2.070550 -0.293394 -1.516508 -3.311254 0.262588 -9.382849 -18.932648 -13.634560 -23.852576 82.535812 -0.924316 0.759373 -3.899112 -0.904288 4.506389 -13.803732 -0.296347 0.605277 -3.520362 -1.655667 -0.082913 -5.757538 5.808234 1.545327 7.624471 0.812507 1.456420 -20.715797 -67.746714 -57.290362 13.156375 23.806426 -29.228881 -15.189987 5.108906 -4.386154 -1.910920 -7.374512 -0.339962 -0.277876 77.140710 63.380698 44.887769 -17.673982 24.116399 -20.918791 -2.416073 5.142922 -1.829435 6.679322 -0.322357 -0.321105 
-6.670526 13.501952 1.377144 -15.472880 80.590347 -2.654320 -2.538575 11.516384 -43.851399 3.935775 19.709377 56.298553 -0.890771 4.081491 -2.433620 -0.255000 -1.909323 -4.402877 0.903623 -8.720465 -18.772088 -14.099562 -24.259613 84.638988 -0.781924 0.049515 -3.811269 -0.654143 3.361699 -10.441562 -0.584577 0.665653 -4.408585 -1.321353 -0.081216 -5.579043 5.434609 1.412078 7.326865 1.318272 1.499075 -20.228879 -68.089457 -56.492419 15.554034 22.344183 -27.892951 -15.179761 5.355278 -4.710764 -3.198789 -7.365217 -0.329775 -0.265059 77.867422 62.950698 43.623345 -17.000264 23.351880 -20.894961 -2.271108 5.095444 -1.148389 6.696012 -0.313851 -0.306582 
-6.211817 13.555721 1.369746 -18.887506 81.359276 -5.776923 -2.197744 10.852828 -44.000367 4.683554 20.153581 57.823491 -1.290577 6.773037 -2.398804 -0.222203 -2.204875 -5.211948 1.389523 -7.733059 -18.734914 -14.548511 -24.308783 86.097813 -1.314439 -0.521026 -4.564184 -0.439785 1.855684 -6.189771 -0.598263 1.042056 -3.661011 -1.103093 0.059919 -5.698099 4.899117 0.931171 7.169621 1.972682 1.386078 -19.412948 -71.019267 -55.416404 19.646173 20.940445 -26.869968 -15.123832 5.424639 -4.867329 -3.868119 -7.357924 -0.322748 -0.258250 79.021951 60.654762 44.306983 -16.333165 22.741405 -20.772408 -2.249951 4.983981 -1.189088 6.701760 -0.307726 -0.296961 
-5.754084 13.606577 1.388607 -22.488663 82.385277 -9.056768 -0.946535 8.859540 -44.408441 5.271876 20.461227 59.146528 -1.137154 7.392788 -2.445646 -0.184340 -2.550339 -6.189333 2.129720 -7.161966 -18.768731 -15.277706 -24.092442 87.372447 -1.050952 -1.434642 -4.367229 -0.364169 0.877961 -3.419606 -1.028407 1.289804 -4.138907 -1.313672 0.113563 -5.439500 4.469275 0.846978 7.073399 2.675055 1.439132 -19.013092 -71.725300 -54.359069 21.529390 19.790506 -25.489721 -15.115282 5.520949 -5.107928 -4.240225 -7.353112 -0.323863 -0.259428 80.575363 59.456994 45.103181 -15.699735 22.028344 -20.674373 -2.416868 5.146985 -1.541964 6.702447 -0.308661 -0.294374 
